<svg xmlns="http://www.w3.org/2000/svg" viewBox="0 0 100 100" width="100" height="100">
  <defs>
    <linearGradient id="grad1" x1="0%" y1="0%" x2="100%" y2="100%">
      <stop offset="0%" style="stop-color:#00ff88;stop-opacity:1" />
      <stop offset="100%" style="stop-color:#7000ff;stop-opacity:1" />
    </linearGradient>
    <filter id="glow" x="-20%" y="-20%" width="140%" height="140%">
      <feGaussianBlur stdDeviation="3" result="blur" />
      <feComposite in="SourceGraphic" in2="blur" operator="over" />
    </filter>
  </defs>
  
  <!-- Hexagon Background (Optional) or just the clean shape -->
  <!-- We will focus on a clean bold monogram -->
  
  <style>
    .shape {
      fill: none;
      stroke: url(#grad1);
      stroke-width: 6;
      stroke-linecap: round;
      stroke-linejoin: round;
      filter: url(#glow);
    }
  </style>

  <!-- Modern Abstract 'S' -->
  <path class="shape" d="M 70 30 L 30 30 L 20 45 L 60 45 L 70 60 L 30 60" />
  
  <!-- Modern Abstract 'G' (interlocked or adjacent) -->
  <!-- Let's try a combined SG Monogram path -->
  <!-- S shape: Topright to Topleft, down diag, right, down diag, left -->
  <!-- G shape: ... Hard to combine perfectly without complex paths. -->
  
  <!-- Let's go for a Tech Hexagon Style container with SG inside -->
  
  <path class="shape" d="M 50 10 L 85 30 L 85 70 L 50 90 L 15 70 L 15 30 Z" opacity="0.5" />
  
  <!-- S -->
  <path class="shape" d="M 60 35 L 40 35 L 35 45 L 65 45 L 60 55 L 40 55" stroke-width="4" transform="translate(0, -5)" />
  
  <!-- G (implied or separate below?) -->
  <!-- Actually, a stylized S and G might clutter. Let's do a very abstract symbol that looks like code brackets or a chip. -->
  
  <!-- Let's try a different approach: Two interlocking shapes -->
  <path class="shape" d="M 35 35 L 65 35 L 65 50 L 35 50 L 35 65 L 65 65" stroke-width="5" />
  <!-- This is a generic snake shape. -->
  
</svg>
